<?xml version="1.0" encoding="UTF-8"?>
<svg width="730px" height="178px" viewBox="0 0 730 178" version="1.1" xmlns="http://www.w3.org/2000/svg" xmlns:xlink="http://www.w3.org/1999/xlink">
    <!-- Generator: Sketch 43.2 (39069) - http://www.bohemiancoding.com/sketch -->
    <title>Group 5</title>
    <desc>Created with Sketch.</desc>
    <defs></defs>
    <g id="Page-1" stroke="none" stroke-width="1" fill="none" fill-rule="evenodd">
        <g id="Artboard-Copy" transform="translate(-401.000000, -78.000000)">
            <g id="Group-5" transform="translate(401.000000, 78.000000)">
                <g id="Group-4">
                    <g id="Group" transform="translate(47.249191, 68.148513)" fill="#911841">
                        <polygon id="Rectangle-3" transform="translate(93.080906, 74.357470) scale(1, -1) translate(-93.080906, -74.357470) " points="87.8834951 62.5261311 121.902913 62.5261311 98.2783172 86.1888091 64.2588997 86.1888091"></polygon>
                        <polygon id="Rectangle-3" transform="translate(28.822006, 74.357470) scale(-1, -1) translate(-28.822006, -74.357470) " points="23.6245955 62.5261311 57.6440129 62.5261311 34.0194175 86.1888091 0 86.1888091"></polygon>
                        <polygon id="Rectangle-3" transform="translate(93.080906, 48.328524) scale(-1, -1) translate(-93.080906, -48.328524) " points="87.8834951 36.4971852 121.902913 36.4971852 98.2783172 60.1598632 64.2588997 60.1598632"></polygon>
                        <polygon id="Rectangle-3" transform="translate(28.822006, 48.328524) scale(1, -1) translate(-28.822006, -48.328524) " points="23.6245955 36.4971852 57.6440129 36.4971852 34.0194175 60.1598632 0 60.1598632"></polygon>
                        <polygon id="Rectangle-3" transform="translate(74.181230, 29.398382) scale(1, -1) rotate(90.000000) translate(-74.181230, -29.398382) " points="68.9838188 17.5670427 103.003236 17.5670427 79.3786408 41.2297208 45.3592233 41.2297208"></polygon>
                        <polygon id="Rectangle-3" transform="translate(47.721683, 29.398382) scale(-1, -1) rotate(90.000000) translate(-47.721683, -29.398382) " points="42.5242718 17.5670427 76.5436893 17.5670427 52.9190939 41.2297208 18.8996764 41.2297208"></polygon>
                    </g>
                    <g id="Group-2" transform="translate(23.624595, 34.074256)" fill="#EF5A66">
                        <polyline id="Rectangle-3" points="145.527508 70.5714416 111.508091 70.5714416 135.132686 46.9087635 169.152104 46.9087635"></polyline>
                        <polygon id="Rectangle-3" transform="translate(28.822006, 58.740103) scale(1, -1) translate(-28.822006, -58.740103) " points="23.6245955 46.9087635 57.6440129 46.9087635 34.0194175 70.5714416 0 70.5714416"></polygon>
                        <polyline id="Rectangle-3" points="133.242718 45.0157493 133.242718 10.9414929 109.618123 34.6041709 109.618123 68.6784274"></polyline>
                        <polygon id="Rectangle-3" transform="translate(97.805825, 29.398382) scale(1, -1) rotate(90.000000) translate(-97.805825, -29.398382) " points="92.6084142 17.5670427 126.627832 17.5670427 103.003236 41.2297208 68.9838188 41.2297208"></polygon>
                        <polygon id="Rectangle-3" transform="translate(47.721683, 39.809960) scale(-1, -1) rotate(90.000000) translate(-47.721683, -39.809960) " points="42.5242718 27.9786211 76.5436893 27.9786211 52.9190939 51.6412991 18.8996764 51.6412991"></polygon>
                        <polygon id="Rectangle-3" transform="translate(71.346278, 29.398382) scale(-1, -1) rotate(90.000000) translate(-71.346278, -29.398382) " points="66.1488673 17.5670427 100.168285 17.5670427 76.5436893 41.2297208 42.5242718 41.2297208"></polygon>
                    </g>
                    <g id="Group-3" fill="#F58466">
                        <polygon id="Rectangle-3" transform="translate(187.579288, 69.151681) scale(-1, -1) translate(-187.579288, -69.151681) " points="182.381877 57.3203419 216.401294 57.3203419 192.776699 80.9830199 158.757282 80.9830199"></polygon>
                        <polygon id="Rectangle-3" transform="translate(28.822006, 69.151681) scale(1, -1) translate(-28.822006, -69.151681) " points="23.6245955 57.3203419 57.6440129 57.3203419 34.0194175 80.9830199 0 80.9830199"></polygon>
                        <polygon id="Rectangle-3" transform="translate(168.679612, 50.221538) scale(1, -1) rotate(90.000000) translate(-168.679612, -50.221538) " points="163.482201 38.3901994 197.501618 38.3901994 173.877023 62.0528775 139.857605 62.0528775"></polygon>
                        <polygon id="Rectangle-3" transform="translate(121.430421, 29.398382) scale(1, -1) rotate(90.000000) translate(-121.430421, -29.398382) " points="116.23301 17.5670427 150.252427 17.5670427 126.627832 41.2297208 92.6084142 41.2297208"></polygon>
                        <polygon id="Rectangle-3" transform="translate(47.721683, 50.221538) scale(-1, -1) rotate(90.000000) translate(-47.721683, -50.221538) " points="42.5242718 38.3901994 76.5436893 38.3901994 52.9190939 62.0528775 18.8996764 62.0528775"></polygon>
                        <polygon id="Rectangle-3" transform="translate(94.970874, 29.398382) scale(-1, -1) rotate(90.000000) translate(-94.970874, -29.398382) " points="89.7734628 17.5670427 123.79288 17.5670427 100.168285 41.2297208 66.1488673 41.2297208"></polygon>
                    </g>
                    <rect id="Rectangle-2" fill="#69203D" x="106.783172" y="130.674644" width="2.83495146" height="47.3253561"></rect>
                </g>
                <path d="M303.68945,128.308376 L308.61943,128.308376 L303.899236,57.4963922 L297.920324,57.4963922 L282.08145,98.3656232 C278.515081,107.926292 275.997644,114.755341 274.21446,121.269203 L273.89978,121.269203 C271.906809,114.440154 269.494265,107.295918 266.137683,98.3656232 L250.928168,57.4963922 L245.159042,57.4963922 L240.019275,128.308376 L244.949256,128.308376 L247.152013,95.739066 C247.991159,83.9720894 248.515625,71.6798014 248.725411,63.3798805 L248.935197,63.3798805 C251.033061,71.15449 254.074964,79.6645355 258.060906,90.696076 L272.011702,128.308376 L275.473178,128.308376 L290.368013,89.8555777 C294.458848,79.2442864 297.290964,71.0494277 299.913294,63.3798805 L300.123081,63.3798805 C300.123081,71.15449 300.962227,84.182214 301.591586,94.7935054 L303.68945,128.308376 Z M354.877333,96.5795643 L354.877333,116.331275 C354.877333,120.323642 354.982227,124.421071 355.611586,128.308376 L350.996285,128.308376 L350.262032,121.059078 L350.052246,121.059078 C347.534809,124.946383 341.975469,129.464061 333.898693,129.464061 C323.724052,129.464061 319.108751,122.319826 319.108751,115.595839 C319.108751,103.933925 329.283392,96.8947512 349.84246,97.1048758 L349.84246,95.739066 C349.84246,90.8011383 348.898421,80.8202207 336.940595,80.925283 C332.535081,80.925283 327.91978,82.0809682 324.248518,84.7075255 L322.67512,81.0303453 C327.290421,77.9835389 332.954654,76.7227914 337.465061,76.7227914 C352.045217,76.7227914 354.877333,87.6492696 354.877333,96.5795643 Z M349.84246,112.128783 L349.84246,101.307367 C338.828673,100.992181 324.353411,102.673177 324.353411,114.755341 C324.353411,122.004639 329.178498,125.26157 334.423159,125.26157 C342.814615,125.26157 347.639702,120.113517 349.317994,115.17559 C349.737566,114.124967 349.84246,112.969282 349.84246,112.128783 Z M371.030887,149.11071 L371.030887,93.953007 C371.030887,87.6492696 370.925994,82.7113419 370.611314,77.8784766 L375.436401,77.8784766 L375.751081,87.439145 L375.960867,87.439145 C379.632129,80.8202207 385.820828,76.7227914 394.631858,76.7227914 C407.533722,76.7227914 416.239858,87.439145 416.239858,102.252928 C416.239858,120.21858 405.540751,129.464061 393.373139,129.464061 C386.135508,129.464061 379.737023,126.20713 376.275547,120.113517 L376.065761,120.113517 L376.065761,149.11071 L371.030887,149.11071 Z M376.065761,98.5757478 L376.065761,108.451603 C376.065761,109.817413 376.170654,111.183223 376.485333,112.44397 C378.583197,120.21858 385.296362,125.26157 393.05846,125.26157 C404.596712,125.26157 411.204984,115.911026 411.204984,102.463053 C411.204984,91.1163252 404.911392,80.925283 393.478032,80.925283 C386.135508,80.925283 379.00277,85.968273 376.800013,94.2681939 C376.485333,95.6340037 376.065761,97.2099381 376.065761,98.5757478 Z M429.036828,128.308376 L434.071702,128.308376 L434.071702,53.6090875 L429.036828,53.6090875 L429.036828,128.308376 Z M489.140634,102.568115 L452.00844,102.568115 C452.00844,118.642645 460.819469,125.051445 471.203896,125.051445 C478.546421,125.051445 482.322576,123.580573 485.154693,122.214763 L486.413411,126.102068 C484.525333,127.152691 479.385566,129.358999 470.574537,129.358999 C456.099275,129.358999 447.07846,118.85277 447.07846,104.038987 C447.07846,87.2290204 456.728634,76.7227914 469.735392,76.7227914 C486.203625,76.7227914 489.350421,92.2720104 489.350421,99.5213084 C489.350421,100.887118 489.350421,101.622554 489.140634,102.568115 Z M452.32312,98.5757478 L484.105761,98.5757478 C484.210654,91.5365744 481.273644,80.925283 469.106032,80.925283 C457.987353,80.925283 453.267159,90.8011383 452.32312,98.5757478 Z M498.056557,124.631196 C501.727819,127.362815 508.860557,129.358999 514.944362,129.358999 C530.048984,129.358999 537.391508,120.21858 537.391508,109.922475 C537.391508,99.4162462 531.202809,94.0580693 519.559663,89.3302663 C509.385023,85.3378992 504.874615,81.3455322 504.874615,73.5709227 C504.874615,68.0026213 508.755663,60.6482609 520.189023,60.6482609 C526.272828,60.6482609 530.783236,62.6444444 532.671314,64.0102542 L534.559392,59.7027003 C532.146848,58.1267659 527.111974,56.4457693 520.503702,56.4457693 C508.440984,56.4457693 499.944634,64.0102542 499.944634,74.411421 C499.944634,83.9720894 506.762693,89.8555777 518.091159,93.953007 C528.370693,97.8403118 532.461528,102.568115 532.461528,110.447787 C532.461528,119.167957 525.958149,125.156507 515.363935,125.156507 C509.489916,125.156507 503.930576,123.265386 499.944634,120.533767 L498.056557,124.631196 Z M584.173877,122.109701 C581.446654,123.370448 577.565605,125.051445 571.586693,125.051445 C559.943547,125.051445 551.656984,116.436337 551.656984,103.198489 C551.656984,91.3264498 558.579935,81.0303453 572.111159,81.0303453 C577.670498,81.0303453 581.551547,82.5012174 583.964091,83.9720894 L585.747275,79.8746601 C583.859197,78.5088503 578.71943,76.7227914 572.530731,76.7227914 C557.531003,76.7227914 546.62211,87.5442073 546.62211,103.618738 C546.62211,118.747708 556.272285,129.358999 570.747547,129.358999 C578.090071,129.358999 583.334731,127.152691 585.537489,126.102068 L584.173877,122.109701 Z M597.495314,128.308376 L602.530188,128.308376 L602.530188,100.466869 C602.530188,98.7858724 602.635081,97.1048758 602.949761,95.6340037 C604.313372,87.5442073 609.243353,81.5556568 616.166304,81.5556568 C617.110343,81.5556568 617.844595,81.5556568 618.578848,81.660719 L618.578848,76.932916 C617.949489,76.8278537 617.215236,76.7227914 616.480984,76.7227914 C609.662926,76.7227914 604.418265,81.660719 602.215508,88.0695188 L601.900828,88.0695188 L601.691042,77.8784766 L597.075741,77.8784766 C597.390421,82.8164042 597.495314,87.9644565 597.495314,93.0074464 L597.495314,128.308376 Z M633.578576,128.308376 L633.578576,77.8784766 L628.543702,77.8784766 L628.543702,128.308376 L633.578576,128.308376 Z M630.956246,67.7924967 C633.473683,67.7924967 635.047081,65.7963132 635.047081,63.4849428 C635.047081,61.0685101 633.36879,59.0723266 631.061139,59.0723266 C628.753489,59.0723266 626.970304,61.1735724 626.970304,63.4849428 C626.970304,65.7963132 628.543702,67.7924967 630.851353,67.7924967 L630.956246,67.7924967 Z M650.361489,149.11071 L650.361489,93.953007 C650.361489,87.6492696 650.256595,82.7113419 649.941916,77.8784766 L654.767003,77.8784766 L655.081683,87.439145 L655.291469,87.439145 C658.962731,80.8202207 665.15143,76.7227914 673.96246,76.7227914 C686.864324,76.7227914 695.57046,87.439145 695.57046,102.252928 C695.57046,120.21858 684.871353,129.464061 672.703741,129.464061 C665.46611,129.464061 659.067625,126.20713 655.606149,120.113517 L655.396362,120.113517 L655.396362,149.11071 L650.361489,149.11071 Z M655.396362,98.5757478 L655.396362,108.451603 C655.396362,109.817413 655.501256,111.183223 655.815935,112.44397 C657.913799,120.21858 664.626964,125.26157 672.389061,125.26157 C683.927314,125.26157 690.535586,115.911026 690.535586,102.463053 C690.535586,91.1163252 684.241994,80.925283 672.808634,80.925283 C665.46611,80.925283 658.333372,85.968273 656.130615,94.2681939 C655.815935,95.6340037 655.396362,97.2099381 655.396362,98.5757478 Z M710.255508,68.632995 L710.255508,77.8784766 L701.759159,77.8784766 L701.759159,81.9759059 L710.255508,81.9759059 L710.255508,113.80978 C710.255508,118.957832 711.094654,123.265386 713.402304,125.891943 C715.290382,128.203314 718.332285,129.358999 722.003547,129.358999 C725.04545,129.358999 727.3531,128.833688 729.031392,128.203314 L728.402032,124.421071 C727.143314,124.84132 725.255236,125.156507 722.632906,125.156507 C717.283353,125.156507 715.290382,121.16414 715.290382,114.755341 L715.290382,81.9759059 L729.660751,81.9759059 L729.660751,77.8784766 L715.290382,77.8784766 L715.290382,66.7418738 L710.255508,68.632995 Z" id="MapleScript" fill="#232323"></path>
            </g>
        </g>
    </g>
</svg>