<?xml version="1.0" encoding="UTF-8"?>
<svg width="56px" height="46px" viewBox="0 0 56 46" version="1.1" xmlns="http://www.w3.org/2000/svg" xmlns:xlink="http://www.w3.org/1999/xlink">
    <!-- Generator: Sketch 43.2 (39069) - http://www.bohemiancoding.com/sketch -->
    <title>Group 4</title>
    <desc>Created with Sketch.</desc>
    <defs></defs>
    <g id="Page-1" stroke="none" stroke-width="1" fill="none" fill-rule="evenodd">
        <g id="Artboard-Copy" transform="translate(-27.000000, -30.000000)">
            <g id="Group-4" transform="translate(27.000000, 30.000000)">
                <g id="Group" transform="translate(12.168285, 17.513026)" fill="#911841">
                    <polygon id="Rectangle-3" transform="translate(23.971521, 19.365607) scale(1, -1) translate(-23.971521, -19.365607) " points="22.6330097 16.325151 31.3941748 16.325151 25.3100324 22.4060627 16.5488673 22.4060627"></polygon>
                    <polygon id="Rectangle-3" transform="translate(7.422654, 19.365607) scale(-1, -1) translate(-7.422654, -19.365607) " points="6.08414239 16.325151 14.8453074 16.325151 8.76116505 22.4060627 0 22.4060627"></polygon>
                    <polygon id="Rectangle-3" transform="translate(23.971521, 12.676604) scale(-1, -1) translate(-23.971521, -12.676604) " points="22.6330097 9.63614815 31.3941748 9.63614815 25.3100324 15.7170598 16.5488673 15.7170598"></polygon>
                    <polygon id="Rectangle-3" transform="translate(7.422654, 12.676604) scale(1, -1) translate(-7.422654, -12.676604) " points="6.08414239 9.63614815 14.8453074 9.63614815 8.76116505 15.7170598 0 15.7170598"></polygon>
                    <polygon id="Rectangle-3" transform="translate(19.104207, 7.811875) scale(1, -1) rotate(90.000000) translate(-19.104207, -7.811875) " points="17.7656958 4.7714188 26.5268608 4.7714188 20.4427184 10.8523305 11.6815534 10.8523305"></polygon>
                    <polygon id="Rectangle-3" transform="translate(12.289968, 7.811875) scale(-1, -1) rotate(90.000000) translate(-12.289968, -7.811875) " points="10.9514563 4.7714188 19.7126214 4.7714188 13.628479 10.8523305 4.86731392 10.8523305"></polygon>
                </g>
                <g id="Group-2" transform="translate(6.084142, 8.756513)" fill="#EF5A66">
                    <polyline id="Rectangle-3" points="37.4783172 18.392661 28.7171521 18.392661 34.8012945 12.3117493 43.5624595 12.3117493"></polyline>
                    <polygon id="Rectangle-3" transform="translate(7.422654, 15.352205) scale(1, -1) translate(-7.422654, -15.352205) " points="6.08414239 12.3117493 14.8453074 12.3117493 8.76116505 18.392661 0 18.392661"></polygon>
                    <polyline id="Rectangle-3" points="34.3145631 11.8252764 34.3145631 3.06876353 28.2304207 9.14967521 28.2304207 17.906188"></polyline>
                    <polygon id="Rectangle-3" transform="translate(25.188350, 7.811875) scale(1, -1) rotate(90.000000) translate(-25.188350, -7.811875) " points="23.8498382 4.7714188 32.6110032 4.7714188 26.5268608 10.8523305 17.7656958 10.8523305"></polygon>
                    <polygon id="Rectangle-3" transform="translate(12.289968, 10.487476) scale(-1, -1) rotate(90.000000) translate(-12.289968, -10.487476) " points="10.9514563 7.44701994 19.7126214 7.44701994 13.628479 13.5279316 4.86731392 13.5279316"></polygon>
                    <polygon id="Rectangle-3" transform="translate(18.374110, 7.811875) scale(-1, -1) rotate(90.000000) translate(-18.374110, -7.811875) " points="17.0355987 4.7714188 25.7967638 4.7714188 19.7126214 10.8523305 10.9514563 10.8523305"></polygon>
                </g>
                <g id="Group-3" fill="#F58466">
                    <polygon id="Rectangle-3" transform="translate(48.308091, 18.027806) scale(-1, -1) translate(-48.308091, -18.027806) " points="46.9695793 14.9873504 55.7307443 14.9873504 49.6466019 21.0682621 40.8854369 21.0682621"></polygon>
                    <polygon id="Rectangle-3" transform="translate(7.422654, 18.027806) scale(1, -1) translate(-7.422654, -18.027806) " points="6.08414239 14.9873504 14.8453074 14.9873504 8.76116505 21.0682621 0 21.0682621"></polygon>
                    <polygon id="Rectangle-3" transform="translate(43.440777, 13.163077) scale(1, -1) rotate(90.000000) translate(-43.440777, -13.163077) " points="42.1022654 10.1226211 50.8634304 10.1226211 44.779288 16.2035328 36.018123 16.2035328"></polygon>
                    <polygon id="Rectangle-3" transform="translate(31.272492, 7.811875) scale(1, -1) rotate(90.000000) translate(-31.272492, -7.811875) " points="29.9339806 4.7714188 38.6951456 4.7714188 32.6110032 10.8523305 23.8498382 10.8523305"></polygon>
                    <polygon id="Rectangle-3" transform="translate(12.289968, 13.163077) scale(-1, -1) rotate(90.000000) translate(-12.289968, -13.163077) " points="10.9514563 10.1226211 19.7126214 10.1226211 13.628479 16.2035328 4.86731392 16.2035328"></polygon>
                    <polygon id="Rectangle-3" transform="translate(24.458252, 7.811875) scale(-1, -1) rotate(90.000000) translate(-24.458252, -7.811875) " points="23.1197411 4.7714188 31.8809061 4.7714188 25.7967638 10.8523305 17.0355987 10.8523305"></polygon>
                </g>
                <rect id="Rectangle-2" fill="#69203D" x="27.5003236" y="33.8381766" width="1" height="12.1618234"></rect>
            </g>
        </g>
    </g>
</svg>